<svg xmlns="http://www.w3.org/2000/svg" xmlns:xlink="http://www.w3.org/1999/xlink" width="1637" height="267" viewBox="0 0 1637 267">
  <defs>
    <clipPath id="clip-Web_1920_1">
      <rect width="1637" height="267"/>
    </clipPath>
  </defs>
  <g id="Web_1920_1" data-name="Web 1920 – 1" clip-path="url(#clip-Web_1920_1)">
    <rect width="1637" height="267" fill="#fff"/>
    <ellipse id="Ellipse_2" data-name="Ellipse 2" cx="1086" cy="304" rx="1086" ry="304" transform="matrix(0.985, -0.174, 0.174, 0.985, -50.257, -413.763)" fill="#ce5536" opacity="0.08"/>
    <ellipse id="Ellipse_1" data-name="Ellipse 1" cx="62.5" cy="70" rx="62.5" ry="70" transform="translate(236 197)" fill="#29c663" opacity="0.06"/>
    <ellipse id="Ellipse_3" data-name="Ellipse 3" cx="59.5" cy="60" rx="59.5" ry="60" transform="translate(1091 -60)" fill="#29c663" opacity="0.06"/>
    <ellipse id="Ellipse_4" data-name="Ellipse 4" cx="62.5" cy="70" rx="62.5" ry="70" transform="translate(187 -70)" fill="#29c663" opacity="0.03"/>
    <ellipse id="Ellipse_5" data-name="Ellipse 5" cx="62.5" cy="70" rx="62.5" ry="70" transform="translate(1399 213)" fill="#29c663" opacity="0.06"/>
    <ellipse id="Ellipse_6" data-name="Ellipse 6" cx="113" cy="99" rx="113" ry="99" transform="translate(706 134)" fill="#29c663" opacity="0.06"/>
    <ellipse id="Ellipse_7" data-name="Ellipse 7" cx="62.5" cy="70" rx="62.5" ry="70" transform="translate(440 -96)" fill="#29c663" opacity="0.06"/>
    <ellipse id="Ellipse_8" data-name="Ellipse 8" cx="62.5" cy="70" rx="62.5" ry="70" transform="translate(1575 115)" fill="#29c663" opacity="0.06"/>
    <ellipse id="Ellipse_9" data-name="Ellipse 9" cx="62.5" cy="70" rx="62.5" ry="70" transform="translate(1399 -70)" fill="#29c663" opacity="0.06"/>
    <ellipse id="Ellipse_10" data-name="Ellipse 10" cx="62.5" cy="70" rx="62.5" ry="70" transform="translate(1085 73)" fill="#29c663" opacity="0.06"/>
  </g>
</svg>
